<svg width="46" height="46" viewBox="0 0 46 46" fill="none" xmlns="http://www.w3.org/2000/svg">
<path d="M8.26562 6.10938V0H10.0625V6.10938H8.26562Z" fill="#0546F0"/>
<path fill-rule="evenodd" clip-rule="evenodd" d="M8.26562 8.26562V37.7344H37.7344V8.26562H8.26562ZM35.9375 10.0625H10.0625V35.9375H35.9375V10.0625Z" fill="#0546F0"/>
<path d="M35.9375 0V6.10938H37.7344V0H35.9375Z" fill="#0546F0"/>
<path d="M35.9375 46V39.8906H37.7344V46H35.9375Z" fill="#0546F0"/>
<path d="M8.26562 39.8906V46H10.0625V39.8906H8.26562Z" fill="#0546F0"/>
<path d="M46 10.0625H39.8906V8.26562H46V10.0625Z" fill="#0546F0"/>
<path d="M39.8906 37.7344H46V35.9375H39.8906V37.7344Z" fill="#0546F0"/>
<path d="M6.10938 37.7344H0V35.9375H6.10938V37.7344Z" fill="#0546F0"/>
<path d="M0 10.0625H6.10938V8.26562H0V10.0625Z" fill="#0546F0"/>
</svg>
